<?xml version="1.0" encoding="iso-8859-1"?>
<!-- Generator: Adobe Illustrator 19.0.0, SVG Export Plug-In . SVG Version: 6.00 Build 0)  -->
<svg version="1.1" id="Layer_1" xmlns="http://www.w3.org/2000/svg" xmlns:xlink="http://www.w3.org/1999/xlink" x="0px" y="0px"
	 viewBox="0 0 512 512" style="enable-background:new 0 0 512 512;" xml:space="preserve">
<path style="fill:#F3A933;" d="M256,0v205.363h43.311l5.513-22.178c29.442-16.929,49.267-48.696,49.267-85.096
	C354.09,43.916,310.174,0,256,0z"/>
<path style="fill:#FFBE35;" d="M256,0c-54.193,0.02-98.09,43.928-98.09,98.089c0,36.398,19.825,68.167,49.267,85.096l5.513,22.178
	h76.683l4.248-22.178c22.687-16.929,37.963-48.696,37.963-85.096C331.584,43.916,297.744,0,256,0z"/>
<path style="fill:#FFFFFF;" d="M278.436,212.075l-16.738-2.172l8.833-68.119h-29.061l8.835,68.119l-16.738,2.172l-10.069-77.644
	c-0.312-2.408,0.428-4.833,2.03-6.656c1.602-1.824,3.913-2.869,6.34-2.869h48.27c2.427,0,4.737,1.045,6.34,2.869
	c1.602,1.823,2.342,4.248,2.03,6.656L278.436,212.075z"/>
<rect x="212.688" y="205.363" style="fill:#2F5E88;" width="86.62" height="85.071"/>
<path style="fill:#111449;" d="M299.31,247.56h-86.62c-4.662,0-8.44-3.778-8.44-8.44s3.778-8.44,8.44-8.44h86.62
	c4.662,0,8.44,3.778,8.44,8.44S303.972,247.56,299.31,247.56z"/>
<polygon style="fill:#FF754F;" points="407.991,381.266 407.991,512 256,512 233.495,358.76 "/>
<polygon style="fill:#FF9269;" points="256,358.76 256,512 104.009,512 104.009,381.266 "/>
<polygon style="fill:#FF4719;" points="407.991,347.507 407.991,381.266 256,381.266 224.909,347.507 256,272.879 "/>
<polygon style="fill:#FF754F;" points="256,272.879 256,381.266 104.009,381.266 104.009,347.507 "/>
<polygon style="fill:#FF9269;" points="407.991,272.879 256,272.879 287.091,347.507 439.082,347.507 "/>
<polygon style="fill:#FFB082;" points="104.009,272.879 72.918,347.507 224.909,347.507 256,272.879 "/>
<g>
</g>
<g>
</g>
<g>
</g>
<g>
</g>
<g>
</g>
<g>
</g>
<g>
</g>
<g>
</g>
<g>
</g>
<g>
</g>
<g>
</g>
<g>
</g>
<g>
</g>
<g>
</g>
<g>
</g>
</svg>
